<?xml version="1.0" encoding="UTF-8"?>
<!DOCTYPE svg PUBLIC "-//W3C//DTD SVG 1.1//EN" "http://www.w3.org/Graphics/SVG/1.1/DTD/svg11.dtd">
<!-- Creator: CorelDRAW X8 -->
<svg xmlns="http://www.w3.org/2000/svg" xml:space="preserve" width="155.186mm" height="45.0922mm" version="1.1" style="shape-rendering:geometricPrecision; text-rendering:geometricPrecision; image-rendering:optimizeQuality; fill-rule:evenodd; clip-rule:evenodd"
viewBox="0 0 14898 4329"
 xmlns:xlink="http://www.w3.org/1999/xlink">
 <defs>
  <style type="text/css">
   <![CDATA[
    .fil0 {fill:white}
   ]]>
  </style>
 </defs>
 <g id="Capa_x0020_1">
  <metadata id="CorelCorpID_0Corel-Layer"/>
  <path class="fil0" d="M1736 2866c-257,0 -672,102 -735,84 -61,-17 -108,-91 -81,-172 33,-101 273,-120 392,-138 432,-66 887,-64 1303,72 139,45 534,185 560,307 32,155 -111,195 -236,122 -87,-50 -185,-99 -294,-139 -345,-127 -556,-136 -909,-136zm-174 -963c506,-41 1055,48 1473,228 178,77 533,209 380,414 -91,123 -194,49 -293,-3 -530,-280 -1190,-384 -1812,-274 -83,15 -296,79 -355,68 -115,-19 -182,-158 -98,-265 89,-115 522,-153 705,-168zm238 -356c-217,0 -460,27 -661,67 -88,18 -233,73 -316,55 -84,-19 -154,-109 -147,-209 14,-201 288,-221 469,-254 596,-106 1257,-68 1831,86 186,50 767,223 777,441 10,207 -177,248 -349,158 -496,-263 -1029,-344 -1604,-344zm-1800 569l0 97c0,1121 984,2116 2104,2116l129 0c1116,0 2104,-985 2104,-2100l0 -129c0,-1115 -988,-2100 -2104,-2100l-129 0c-1126,0 -2104,990 -2104,2116zm5826 1110c-151,0 -299,-26 -444,-78 -146,-52 -278,-132 -396,-239l257 -308c91,73 183,132 279,175 95,43 199,65 312,65 91,0 161,-16 211,-49 50,-33 75,-79 75,-138l0 -5c0,-28 -6,-53 -16,-75 -10,-22 -30,-42 -59,-61 -30,-19 -70,-38 -122,-56 -52,-19 -120,-39 -203,-60 -100,-24 -191,-52 -272,-82 -82,-30 -151,-67 -207,-112 -57,-44 -101,-99 -132,-165 -31,-66 -47,-148 -47,-246l0 -6c0,-90 17,-172 50,-244 34,-73 82,-136 142,-188 61,-53 134,-94 219,-122 84,-28 177,-42 279,-42 145,0 279,21 400,65 122,43 233,105 335,186l-226 328c-89,-60 -175,-108 -260,-143 -85,-34 -170,-52 -255,-52 -84,0 -148,17 -191,50 -42,33 -63,74 -63,123l0 5c0,32 6,60 18,84 13,23 35,45 67,63 32,19 76,37 132,54 56,17 126,37 211,60 100,26 190,56 268,89 78,33 145,72 198,118 54,47 95,101 123,163 27,62 41,137 41,223l0 6c0,98 -18,185 -54,262 -36,76 -85,140 -149,192 -63,52 -140,91 -228,119 -88,27 -186,41 -293,41zm1653 -365c51,0 99,-10 143,-30 44,-20 83,-48 117,-85 34,-36 61,-80 81,-131 20,-51 29,-109 29,-173l0 -5c0,-63 -9,-120 -29,-171 -20,-52 -47,-97 -81,-133 -34,-37 -73,-65 -117,-85 -44,-20 -92,-30 -143,-30 -51,0 -98,10 -143,30 -44,20 -83,48 -116,85 -33,36 -59,81 -79,133 -20,51 -30,108 -30,171l0 5c0,63 10,120 30,171 20,52 46,97 79,133 33,37 72,65 116,85 45,20 92,30 143,30zm-792 -1179l430 0 0 217c53,-71 116,-130 191,-176 74,-47 168,-70 281,-70 89,0 175,17 258,51 83,34 156,85 220,152 64,66 116,149 154,246 39,97 58,208 58,335l0 5c0,127 -19,238 -58,335 -38,98 -89,180 -152,247 -63,66 -137,117 -220,151 -82,34 -169,51 -260,51 -115,0 -209,-23 -284,-68 -74,-45 -137,-98 -188,-159l0 651 -430 0 0 -1968zm2462 1179c63,0 118,-11 166,-33 48,-21 89,-51 123,-89 34,-37 60,-81 78,-131 18,-50 27,-103 27,-160l0 -6c0,-56 -10,-109 -29,-159 -19,-50 -46,-95 -82,-133 -36,-39 -78,-70 -127,-92 -49,-23 -103,-34 -161,-34 -62,0 -118,11 -166,32 -48,22 -89,52 -123,89 -34,38 -60,82 -77,132 -18,50 -27,103 -27,160l0 5c0,57 9,110 28,160 19,50 46,94 82,133 36,39 78,69 126,92 48,23 102,34 162,34zm-5 370c-117,0 -225,-20 -325,-60 -100,-41 -187,-97 -259,-167 -73,-71 -130,-154 -171,-249 -42,-95 -62,-198 -62,-307l0 -6c0,-109 20,-211 62,-306 41,-96 99,-179 172,-251 74,-71 160,-128 260,-169 100,-42 210,-63 328,-63 117,0 226,21 326,61 100,41 186,96 258,167 73,71 130,154 172,249 41,95 62,197 62,307l0 5c0,110 -21,212 -62,307 -42,95 -99,179 -173,250 -74,72 -160,129 -260,170 -100,42 -209,62 -328,62zm1450 -8c-66,0 -126,-7 -180,-21 -54,-14 -100,-39 -139,-75 -38,-36 -68,-83 -90,-140 -22,-58 -33,-131 -33,-219l0 -719 -181 0 0 -367 181 0 0 -388 430 0 0 388 357 0 0 367 -357 0 0 650c0,99 47,148 139,148 75,0 146,-19 212,-57l0 345c-45,27 -95,48 -150,64 -55,16 -118,24 -189,24zm485 -1541l430 0 0 1515 -430 0 0 -1515zm1738 -549l430 0 0 2064 -430 0 0 -2064zm-1026 916l-178 0 0 -353 178 0 0 -96c0,-164 40,-287 121,-368 80,-79 196,-119 348,-119 68,0 126,4 174,12 48,7 92,17 132,31l0 356c-32,-11 -63,-20 -94,-27 -30,-6 -64,-10 -101,-10 -104,0 -156,55 -156,164l0 60 348 0 0 350 -342 0 0 1148 -430 0 0 -1148zm2027 1609c-80,0 -149,-9 -210,-28 -60,-19 -117,-44 -172,-76l144 -311c28,17 59,31 92,42 33,11 64,17 92,17 38,0 67,-7 89,-21 22,-14 42,-40 61,-78l-594 -1521 455 0 345 1032 331 -1032 447 0 -583 1552c-28,77 -58,143 -90,197 -32,53 -68,97 -106,131 -39,34 -83,59 -132,74 -49,15 -105,22 -169,22zm-2605 -2607c-316,102 -167,543 136,464 298,-77 175,-564 -136,-464z"/>
 </g>
</svg>
